<svg width="105" height="24" viewBox="0 0 105 24" fill="none" xmlns="http://www.w3.org/2000/svg">
<g clip-path="url(#clip0_2119_8337)">
<path d="M0 12C0 7.51386 0 5.27077 0.964614 3.6C1.59655 2.50546 2.50546 1.59655 3.6 0.964614C5.27077 0 7.51386 0 12 0C16.4861 0 18.7292 0 20.4 0.964614C21.4945 1.59655 22.4035 2.50546 23.0354 3.6C24 5.27077 24 7.51386 24 12C24 16.4861 24 18.7292 23.0354 20.4C22.4035 21.4945 21.4945 22.4035 20.4 23.0354C18.7292 24 16.4861 24 12 24C7.51386 24 5.27077 24 3.6 23.0354C2.50546 22.4035 1.59655 21.4945 0.964614 20.4C0 18.7292 0 16.4861 0 12Z" fill="#0067DC"/>
<path fill-rule="evenodd" clip-rule="evenodd" d="M16.8265 4.56576C17.3321 4.08218 18.1292 4.07999 18.6374 4.54957L18.6855 4.59623L18.8499 4.76857C20.5147 6.55928 21.1351 8.64607 20.976 10.6841C20.8145 12.7509 19.8608 14.6998 18.5302 16.24C17.2004 17.7792 15.4251 18.9913 13.506 19.5174C11.5629 20.05 9.43769 19.8802 7.59287 18.5779C6.02819 17.4733 5.43248 15.6881 5.39201 13.9539C4.51399 13.5232 3.59012 12.988 2.62078 12.3371L2.36465 12.1632L2.31008 12.1238C1.75976 11.7034 1.63393 10.9252 2.03501 10.354C2.43622 9.78277 3.21745 9.62779 3.80804 9.99091L3.86485 10.0278L4.09819 10.1865C4.67888 10.5763 5.23297 10.9144 5.75984 11.2062C6.09971 10.0135 6.66287 8.86832 7.40483 7.9244C8.51633 6.51026 10.1828 5.37935 12.2244 5.54808C14.0634 5.70017 15.4222 6.6488 16.1235 7.98752C16.8027 9.28388 16.8127 10.8433 16.2192 12.1844C15.6141 13.5516 14.3856 14.6906 12.6186 15.1599C11.3469 15.4977 9.85709 15.4745 8.17607 15.0222V15.0228C7.50695 14.8427 6.80567 14.594 6.07277 14.271C5.90837 14.1985 5.76529 14.3092 6.07277 14.5014C6.93821 15.1156 8.15741 15.6305 8.51021 15.8033C8.67695 16.073 8.88371 16.2943 9.12071 16.4616C10.2113 17.2315 11.4871 17.3725 12.8038 17.0116C14.1446 16.644 15.4885 15.7577 16.5309 14.5512C17.5724 13.3456 18.2439 11.9011 18.3546 10.4838C18.459 9.14654 18.0731 7.77278 16.9106 6.52436L16.7957 6.40406L16.7498 6.35456C16.2923 5.83668 16.3211 5.04929 16.8265 4.56576ZM12.0056 8.13926C11.162 8.06954 10.2718 8.5136 9.48083 9.51992C8.87843 10.2864 8.42261 11.2822 8.19023 12.3069C9.84563 12.8728 11.0793 12.8767 11.9366 12.649C12.9289 12.3855 13.524 11.7888 13.8104 11.1418C14.1083 10.4685 14.0777 9.7349 13.7888 9.1835C13.5222 8.67446 12.9854 8.22032 12.0056 8.13926Z" fill="white"/>
</g>
<path d="M33.321 19V8.09091H35.7784V9.9446H35.9062C36.1335 9.3196 36.5099 8.83191 37.0355 8.48153C37.5611 8.12642 38.1884 7.94886 38.9176 7.94886C39.6562 7.94886 40.2789 8.12879 40.7855 8.48864C41.2969 8.84375 41.6567 9.32907 41.8651 9.9446H41.9787C42.2202 9.33854 42.6274 8.85559 43.2003 8.49574C43.7779 8.13116 44.4621 7.94886 45.2528 7.94886C46.2566 7.94886 47.0758 8.2661 47.7102 8.90057C48.3447 9.53504 48.6619 10.4607 48.6619 11.6776V19H46.0838V12.0753C46.0838 11.3982 45.9039 10.9034 45.544 10.5909C45.1842 10.2737 44.7438 10.1151 44.223 10.1151C43.6027 10.1151 43.1174 10.3092 42.767 10.6974C42.4214 11.081 42.2486 11.5805 42.2486 12.196V19H39.7273V11.9688C39.7273 11.4053 39.5568 10.9555 39.2159 10.6193C38.8797 10.2831 38.4394 10.1151 37.8949 10.1151C37.5256 10.1151 37.1894 10.2098 36.8864 10.3991C36.5833 10.5838 36.3419 10.8466 36.1619 11.1875C35.982 11.5237 35.892 11.9167 35.892 12.3665V19H33.321ZM53.8094 19.2202C53.1182 19.2202 52.4955 19.0971 51.9415 18.8509C51.3923 18.5999 50.9567 18.2306 50.6347 17.7429C50.3175 17.2552 50.1589 16.6539 50.1589 15.9389C50.1589 15.3234 50.2725 14.8144 50.4998 14.4119C50.7271 14.0095 51.0372 13.6875 51.4302 13.446C51.8232 13.2045 52.2659 13.0223 52.7583 12.8991C53.2555 12.7713 53.7692 12.679 54.2995 12.6222C54.9387 12.5559 55.4572 12.4967 55.8549 12.4446C56.2526 12.3878 56.5415 12.3026 56.7214 12.1889C56.906 12.0705 56.9984 11.8883 56.9984 11.642V11.5994C56.9984 11.0644 56.8397 10.6501 56.5225 10.3565C56.2053 10.063 55.7484 9.91619 55.1518 9.91619C54.522 9.91619 54.0225 10.0535 53.6532 10.3281C53.2886 10.6027 53.0424 10.9271 52.9146 11.3011L50.514 10.9602C50.7034 10.2973 51.0159 9.74337 51.4515 9.2983C51.8871 8.84848 52.4198 8.51231 53.0495 8.28977C53.6792 8.0625 54.3753 7.94886 55.1376 7.94886C55.6631 7.94886 56.1863 8.01042 56.7072 8.13352C57.228 8.25663 57.7039 8.46023 58.1347 8.74432C58.5656 9.02367 58.9112 9.40483 59.1717 9.88778C59.4368 10.3707 59.5694 10.9744 59.5694 11.6989V19H57.0978V17.5014H57.0126C56.8563 17.8045 56.6362 18.0885 56.3521 18.3537C56.0727 18.6141 55.72 18.8248 55.2938 18.9858C54.8724 19.142 54.3776 19.2202 53.8094 19.2202ZM54.4771 17.331C54.9932 17.331 55.4406 17.2292 55.8194 17.0256C56.1982 16.8172 56.4894 16.5426 56.693 16.2017C56.9013 15.8608 57.0055 15.4891 57.0055 15.0866V13.8011C56.925 13.8674 56.7877 13.929 56.5935 13.9858C56.4041 14.0426 56.1911 14.0923 55.9543 14.1349C55.7176 14.1776 55.4832 14.2154 55.2512 14.2486C55.0192 14.2817 54.818 14.3101 54.6475 14.3338C54.264 14.3859 53.9207 14.4711 53.6177 14.5895C53.3147 14.7079 53.0755 14.8736 52.9004 15.0866C52.7252 15.295 52.6376 15.5649 52.6376 15.8963C52.6376 16.3698 52.8104 16.7273 53.156 16.9688C53.5017 17.2102 53.942 17.331 54.4771 17.331ZM68.5077 14.4119V8.09091H71.0788V19H68.5859V17.0611H68.4722C68.226 17.6719 67.8212 18.1714 67.2577 18.5597C66.699 18.9479 66.0101 19.142 65.191 19.142C64.476 19.142 63.8439 18.9834 63.2947 18.6662C62.7502 18.3442 62.324 17.8778 62.0163 17.267C61.7085 16.6515 61.5546 15.9081 61.5546 15.0369V8.09091H64.1256V14.6392C64.1256 15.3305 64.315 15.8797 64.6938 16.2869C65.0726 16.6941 65.5698 16.8977 66.1853 16.8977C66.5641 16.8977 66.931 16.8054 67.2861 16.6207C67.6413 16.4361 67.9325 16.1615 68.1597 15.7969C68.3917 15.4276 68.5077 14.9659 68.5077 14.4119ZM75.6936 4.45455V19H73.1226V4.45455H75.6936ZM77.7374 19V8.09091H80.3085V19H77.7374ZM79.03 6.54261C78.6228 6.54261 78.2725 6.40767 77.9789 6.13778C77.6853 5.86316 77.5386 5.53409 77.5386 5.15057C77.5386 4.76231 77.6853 4.43324 77.9789 4.16335C78.2725 3.88873 78.6228 3.75142 79.03 3.75142C79.442 3.75142 79.7924 3.88873 80.0812 4.16335C80.3747 4.43324 80.5215 4.76231 80.5215 5.15057C80.5215 5.53409 80.3747 5.86316 80.0812 6.13778C79.7924 6.40767 79.442 6.54261 79.03 6.54261ZM84.9233 12.608V19H82.3523V8.09091H84.8097V9.9446H84.9375C85.1884 9.33381 85.5885 8.84848 86.1378 8.48864C86.6918 8.12879 87.3759 7.94886 88.1903 7.94886C88.9432 7.94886 89.599 8.10985 90.1577 8.43182C90.7211 8.75379 91.1567 9.22017 91.4645 9.83097C91.777 10.4418 91.9309 11.1828 91.9261 12.054V19H89.3551V12.4517C89.3551 11.7225 89.1657 11.152 88.7869 10.7401C88.4129 10.3281 87.8944 10.1222 87.2315 10.1222C86.7817 10.1222 86.3816 10.2216 86.0312 10.4205C85.6856 10.6146 85.4134 10.8963 85.2145 11.2656C85.0204 11.6349 84.9233 12.0824 84.9233 12.608ZM96.2835 15.5767L96.2764 12.473H96.6884L100.609 8.09091H103.613L98.7906 13.4602H98.258L96.2835 15.5767ZM93.9398 19V4.45455H96.5108V19H93.9398ZM100.786 19L97.2352 14.0355L98.9682 12.2244L103.862 19H100.786Z" fill="black"/>
<defs>
<clipPath id="clip0_2119_8337">
<rect width="24" height="24" fill="white"/>
</clipPath>
</defs>
</svg>
